<svg width="180" height="180" viewBox="0 0 180 180" fill="none" xmlns="http://www.w3.org/2000/svg">
<g clip-path="url(#clip0_317_50)">
<path d="M140 0H40C17.9086 0 0 17.9086 0 40V140C0 162.091 17.9086 180 40 180H140C162.091 180 180 162.091 180 140V40C180 17.9086 162.091 0 140 0Z" fill="#FFDD2D"/>
<path fill-rule="evenodd" clip-rule="evenodd" d="M169 78.9701L162.262 79.1837C161.689 79.1837 157.551 79.0653 153.534 76.1566C153.835 76.1841 154.134 76.2285 154.441 76.2285C158.573 76.2285 162.577 73.745 164.179 70.1868L167.077 63.7643C163.44 63.8129 160.117 63.3538 160.117 63.3538C160.09 63.3518 157.469 63.0133 154.439 59.9226C152.267 57.7078 149.576 56.5337 146.665 56.5337C145.389 56.5337 144.251 56.7643 143.268 57.0752C143.423 56.5548 143.565 56.0259 143.65 55.4823C144.578 49.4702 140.706 44.8882 140.704 44.8924L135.632 38.6223L132.489 45.9883C132.479 46.0094 131.683 47.7377 130.265 48.5775C129.839 46.4134 128.784 43.9786 126.534 41.6558C122.291 37.2726 117.13 36.6168 114.429 36.6168C113.179 36.6168 112.285 36.7522 112.067 36.7882L105.947 37.9876C106.3 36.6253 107.055 34.2454 108.428 32.1046L111.806 26.854L103.307 27.8186L100.601 22.0795L95.3593 24.7767L90.5135 20L85.6804 24.7767L80.4279 22.0795L77.7263 27.8186L69.2298 26.8519L72.6135 32.1067C73.9887 34.2454 74.7388 36.6189 75.0884 37.9813L69.2488 36.8326L69.0475 36.7988C68.7573 36.7522 67.8695 36.6168 66.6109 36.6168C63.9115 36.6168 58.7479 37.2726 54.5165 41.6536C52.2642 43.9764 51.2069 46.4134 50.7769 48.5775C49.3678 47.7441 48.5775 46.0453 48.5775 46.0453L45.4289 38.637L40.2802 44.9453C39.6488 45.7576 36.5489 50.0668 37.39 55.4887C37.4769 56.0302 37.6189 56.5548 37.7714 57.0752C36.7946 56.7601 35.6547 56.5337 34.3812 56.5337C31.4678 56.5337 28.7791 57.7078 26.6009 59.9226C23.5795 63.0006 21.5236 63.217 20.9987 63.3475C20.4739 63.4781 18.2421 63.8425 13.9768 63.7643L16.8627 70.1868C18.4646 73.745 22.4713 76.2285 26.5966 76.2285C26.9081 76.2285 27.2048 76.1841 27.5098 76.1566C23.5011 79.0653 19.3629 79.1837 18.8629 79.1859L12 78.9701L14.0785 85.4814C15.1253 88.8365 18.6235 94.3938 25.3169 94.9924C24.588 98.0387 22.9735 101.455 19.4265 102.928L14.3137 105.03L17.1021 109.879C18.6744 112.493 22.3738 115.553 27.6349 115.553C28.7706 115.548 29.8681 115.434 30.9276 115.209C31.1987 116.405 31.5356 117.603 31.9361 118.791C33.5019 123.448 32.1523 126.692 32.1374 126.729L29.6117 132.008L35.2479 133.491C35.3178 133.513 37.0213 133.98 39.1529 133.98C40.1191 133.98 41.0471 133.88 41.9096 133.674C42.5642 133.521 43.1956 133.318 43.7995 133.072C44.5305 134.378 45.4162 135.571 46.4481 136.639C50.0607 140.339 55.1798 142.214 61.6614 142.214H61.6825L66.31 142.154L56.7498 146.124L64.009 149.628C66.6491 150.91 69.7722 152.427 72.9589 153.588L72.0499 156.065L74.5544 157.203C74.777 157.305 79.5888 159.452 87.5853 159.911C87.5853 159.911 89.5177 160 90.5813 160C91.6429 160 93.5498 159.905 93.5498 159.905C101.498 159.435 106.272 157.305 106.494 157.203L109.003 156.061L108.087 153.582C111.361 152.386 114.605 150.809 117.134 149.575L124.256 146.12L114.728 142.154L119.374 142.214C125.866 142.214 130.985 140.337 134.592 136.632C135.619 135.573 136.503 134.384 137.238 133.072C137.844 133.318 138.48 133.521 139.136 133.678C139.999 133.88 140.923 133.98 141.889 133.98C143.984 133.98 145.705 133.519 145.751 133.504L151.411 132.008L148.944 126.825C148.888 126.692 147.537 123.448 149.106 118.787C149.502 117.598 149.836 116.401 150.11 115.209C151.174 115.434 152.284 115.548 153.43 115.553C160.133 115.553 163.344 110.848 163.965 109.824L166.728 105.026L161.615 102.932C158.06 101.455 156.449 98.0408 155.729 94.9966C162.335 94.4213 165.88 88.8598 166.964 85.4835L169 78.9701Z" fill="#FEFEFE"/>
<path fill-rule="evenodd" clip-rule="evenodd" d="M101.618 36.2914C98.5479 34.5778 94.5664 33.6026 90.4985 33.6026C86.4516 33.6026 82.47 34.5778 79.3916 36.2914C79.111 35.3499 78.7206 34.2055 78.1889 33.0081L79.3453 33.1456L80.5606 33.2746L81.0838 32.1619L82.6157 28.8806L85.4556 30.3552L86.5571 30.9158L87.4327 30.0485L90.4985 27L93.5705 30.0485L94.4503 30.9158L95.5517 30.3552L98.377 28.8806L99.9299 32.1619L100.443 33.2746L101.66 33.1456L102.821 33.0081C102.288 34.2055 101.894 35.3499 101.618 36.2914ZM90.4984 40.3685C85.1053 40.3748 81.0626 42.1455 80.1828 44.2293L90.4984 48.3144L100.816 44.2293C99.9446 42.1455 95.8998 40.3748 90.4984 40.3685ZM90.6077 148.418H90.5971H90.5084H90.4071H90.3987C87.1347 148.439 82.6299 147.766 80.4652 147.133L77.8573 154.208C79.5747 154.821 85.4024 156 90.5084 156C95.604 156 101.434 154.821 103.149 154.208L100.545 147.133C98.3723 147.766 93.8739 148.439 90.6077 148.418ZM101.548 144.901C104.068 144.133 108.403 142.479 110.344 141.377L109.048 145.628L113.441 147.093C110.785 148.429 107.566 149.677 103.665 150.745L101.548 144.901ZM70.6618 141.377L71.9614 145.628L67.5648 147.093C70.2188 148.429 73.4509 149.677 77.337 150.745L79.4573 144.901C76.9424 144.133 72.6028 142.479 70.6618 141.377ZM152.56 71.556C153.09 71.74 153.626 71.8205 154.158 71.8205C156.46 71.8205 158.679 70.329 159.446 68.6239C159.446 68.6239 155.23 68.3679 150.693 63.754C149.252 62.2583 147.722 61.8118 146.413 61.8118C144.377 61.8118 142.849 62.8866 142.849 62.8866C145.805 64.465 147.492 66.5582 148.908 68.3165C150.114 69.8151 151.125 71.0703 152.56 71.556ZM28.4308 71.556C27.916 71.74 27.3779 71.8205 26.8462 71.8205C24.5463 71.8205 22.3203 70.329 21.5629 68.626C21.5629 68.626 25.7765 68.3679 30.3066 63.754C31.7561 62.2561 33.2816 61.8118 34.6002 61.8118C36.6237 61.8118 38.1556 62.8886 38.1556 62.8886C35.2071 64.4638 33.5196 66.5529 32.1006 68.3094C30.8876 69.8109 29.8709 71.0694 28.4308 71.556ZM150.91 105.233C146.671 103.139 143.998 97.5791 143.35 95.5779C142.646 106.6 137.28 114.251 131.005 121.618C127.748 125.436 126.612 129.149 126.612 129.149C126.612 129.149 127.241 124.942 130.055 121.518C135.911 114.467 141.475 105.688 141.889 95.5355C142.171 88.4507 140.357 82.7069 137.521 77.9703C139.107 82.9016 138.882 88.9394 133.497 94.5772C133.497 94.5772 144.22 81.6958 129.231 68.4885C124.972 64.92 120.426 62.3206 116.939 60.3265V60.3264C115.514 59.5117 114.265 58.798 113.285 58.1605C125.494 62.1546 131.457 57.7585 131.457 57.7585C127.559 61.1455 122.51 61.0884 119.382 60.5997C120.232 61.0143 121.114 61.448 122.063 61.9599C132.357 67.5661 141.61 76.7919 143.188 89.5676V89.4703C145.583 102.016 150.91 105.233 150.91 105.233ZM154.044 90.6169C154.14 90.6232 154.221 90.6233 154.318 90.6233C160.056 90.6233 162 84.4607 162 84.4607H161.889C160.836 84.4607 152.303 84.2111 146.273 76.5275C146.104 76.3126 145.936 76.0988 145.77 75.8863V75.8862C142.021 71.0984 138.776 66.9523 132.624 65.2792L131.991 65.1692L131.855 64.5218C131.676 63.5402 132.351 62.6158 133.877 61.6214C142.745 55.7996 136.721 48.3719 136.721 48.3719C136.721 48.3719 134.189 54.3123 128.524 54.3123C128.456 54.3123 128.387 54.3102 128.317 54.3082C128.247 54.306 128.175 54.3039 128.104 54.3039L127.978 54.2974C127.379 54.2663 126.797 54.2361 126.214 54.1135L125.171 53.9083C125.171 53.9083 126.785 49.5016 122.886 45.4589C119.949 42.4061 116.377 41.8878 114.313 41.8878C113.275 41.8878 112.614 42.0212 112.614 42.0212C114.573 44.5872 115.989 48.8479 113.729 51.4776C112.972 52.3511 111.793 52.9031 110.632 53.4467C108.792 54.3076 106.998 55.1475 106.998 57.2106C106.998 58.6386 108.33 60.3014 110.714 61.7949C117.89 66.3243 125.012 72.3387 127.977 80.3946C131.676 90.4434 127.507 97.1137 121.557 100.94C121.557 100.94 123.424 102.663 126.129 102.883C126.68 102.936 127.217 102.963 127.72 102.963C133.434 102.963 136.389 100.274 136.389 100.274C136.389 100.274 135.903 103.987 132.93 107.434C130.184 110.615 126.584 112.491 121.09 112.567C121.09 112.567 120.917 115.126 123.348 117.338C124.907 118.735 128.501 119.187 128.501 119.187C128.501 119.187 121.77 120.556 121.028 130.522C120.624 135.923 119.247 137.801 119.247 137.801H119.366C134.986 137.801 134.588 124.37 134.588 124.37C134.588 124.37 135.672 128.345 140.031 129.384C140.556 129.519 141.119 129.574 141.654 129.574C143.055 129.574 144.275 129.244 144.275 129.244C144.275 129.244 141.991 124.419 144.258 117.669C146.134 112.066 145.832 107.918 145.832 107.918C145.832 107.918 147.935 111.106 153.151 111.136H153.206C157.55 111.136 159.443 107.833 159.443 107.833C149.028 103.498 150.058 89.5105 150.058 89.5105C150.058 89.5105 151.411 90.5217 154.044 90.6169ZM37.6497 95.5759C38.3587 106.6 43.7242 114.251 49.9971 121.616C53.2528 125.436 54.4027 129.147 54.4027 129.147C54.4027 129.147 53.7655 124.939 50.9382 121.521C45.0957 114.467 39.5318 105.686 39.1225 95.5357C38.8292 88.4487 40.6458 82.705 43.4858 77.9705C41.9013 82.9039 42.1186 88.9395 47.5095 94.5795C47.5095 94.5795 36.7846 81.696 51.7821 68.4887C56.0375 64.9217 60.5765 62.3242 64.0609 60.3302C65.4865 59.5143 66.7357 58.7995 67.7165 58.1607C55.5126 62.1548 49.5499 57.7566 49.5499 57.7566C53.4448 61.1457 58.4918 61.0886 61.6251 60.5999L61.5531 60.635C60.7266 61.039 59.8599 61.4627 58.9433 61.9623C48.6447 67.5663 39.3989 76.7942 37.8143 89.5678V89.4684C35.4237 102.014 30.0982 105.233 30.0982 105.233C34.3329 103.139 37.0019 97.5772 37.6497 95.5759ZM57.6627 117.337C56.1035 118.735 52.506 119.187 52.506 119.187C52.506 119.187 59.243 120.554 59.9837 130.522C60.3866 135.923 61.7518 137.799 61.7518 137.799H61.6421C46.0179 137.799 46.4188 124.368 46.4188 124.368C46.4188 124.368 45.328 128.345 40.9751 129.384C40.4539 129.519 39.8969 129.574 39.3526 129.574C37.9516 129.574 36.7383 129.244 36.7383 129.244C36.7383 129.244 39.0086 124.421 36.7447 117.669C34.8731 112.066 35.177 107.916 35.177 107.916C35.177 107.916 33.0755 111.106 27.8555 111.138H27.8028C23.4604 111.138 21.5636 107.833 21.5636 107.833C31.9719 103.499 30.9528 89.5107 30.9528 89.5107C30.9528 89.5107 29.6004 90.5219 26.9608 90.617C26.8638 90.6235 26.7773 90.6235 26.6866 90.6235C20.9454 90.6235 19 84.4609 19 84.4609H19.116C20.1753 84.4609 28.6995 84.2113 34.7276 76.5277C34.8975 76.3114 35.0661 76.0963 35.2337 75.8824L35.234 75.882C38.9832 71.098 42.2309 66.954 48.3705 65.2794L49.0161 65.1673L49.1533 64.522C49.3327 63.5404 48.6595 62.6138 47.1362 61.6216C38.2681 55.7997 44.2898 48.3742 44.2898 48.3742C44.2898 48.3742 46.807 54.3125 52.4891 54.3125C52.5566 54.3125 52.6225 54.311 52.6895 54.3094H52.6896C52.7587 54.3077 52.8288 54.3062 52.9026 54.3062L53.0675 54.2971C53.6502 54.265 54.2243 54.2335 54.7931 54.1136L55.8397 53.9085C55.8397 53.9085 54.2172 49.5018 58.1248 45.459C61.0597 42.4063 64.6339 41.8859 66.6933 41.8859C67.7377 41.8859 68.3897 42.0213 68.3897 42.0213C66.4359 44.5874 65.0201 48.848 67.2798 51.4756C68.0362 52.3503 69.2146 52.9028 70.3746 53.4469C72.2112 54.3082 74.0021 55.148 74.0021 57.2107C74.0021 58.6366 72.6729 60.3015 70.2887 61.7951C63.1127 66.3245 55.9917 72.341 53.0292 80.3949C49.3327 90.4457 53.5018 97.116 59.4583 100.94C59.4583 100.94 57.5889 102.663 54.8775 102.883C54.3269 102.936 53.7951 102.962 53.2825 102.962C47.575 102.962 44.619 100.275 44.619 100.275C44.619 100.275 45.1107 103.987 48.0645 107.436C50.8264 110.615 54.4239 112.491 59.9182 112.568C59.9182 112.568 60.0913 115.126 57.6627 117.337ZM86.9736 69.6898H90.6592H94.3344V72.2218C93.4715 71.16 91.7838 71.3779 91.7838 71.3779V75.0267C91.7838 75.0267 91.8491 76.8247 92.4757 77.6011H90.6592H88.8323C89.4694 76.8247 89.5264 75.0267 89.5264 75.0267V71.3779C89.5264 71.3779 87.8449 71.16 86.9736 72.2218V69.6898ZM78.9508 70.0714C79.2061 70.3463 79.4572 70.6446 79.702 70.9472L79.7355 70.9879V70.988C79.7802 71.0422 79.8234 71.0947 79.8708 71.1608C80.0944 71.4591 80.3202 71.7764 80.5396 72.1023C80.5677 72.1389 80.595 72.1797 80.6233 72.222L80.6504 72.2627L80.6657 72.285L80.6756 72.2992L80.6873 72.3159C80.949 72.7114 81.1958 73.1219 81.4405 73.545C83.694 77.4439 87.2977 79.7774 90.4986 79.7816C93.7014 79.7774 97.3031 77.4439 99.5629 73.545C99.8119 73.1113 100.065 72.6903 100.327 72.2968C100.367 72.2419 100.407 72.1847 100.443 72.1255C100.664 71.7892 100.899 71.4633 101.142 71.146C101.175 71.1027 101.206 71.0621 101.237 71.023L101.289 70.9577C101.54 70.6446 101.799 70.3442 102.063 70.0608C102.081 70.0428 102.099 70.0253 102.115 70.0082V70.0081C102.14 69.9828 102.164 69.9586 102.19 69.9359C103.337 68.7597 104.704 67.8606 106.497 67.3634L105.699 66.898H105.657L102.485 65.0532L99.2274 63.181L90.5239 67.9325L90.4986 67.9113L90.4817 67.9325L81.776 63.181L78.5204 65.0532L75.3428 66.898H75.3069L74.503 67.3634C76.2965 67.8606 77.6595 68.7491 78.8115 69.9274C78.8314 69.9465 78.8491 69.9665 78.8668 69.9866C78.8925 70.0158 78.9184 70.045 78.9508 70.0714ZM87.7244 55.9715V53.5898L83.4437 51.7833C83.4437 51.7833 83.4817 53.1666 85.4078 54.6685C86.4507 55.4933 87.0972 55.7051 87.2394 55.7518C87.2566 55.7574 87.2664 55.7606 87.2687 55.7621L87.7244 55.9715ZM89.7464 49.9433V64.7774L82.813 61.1154L80.3297 46.7446L89.7464 49.9433ZM93.279 53.5898L97.5596 51.7833C97.5596 51.7833 97.5237 53.1666 95.5912 54.6685C94.5471 55.4973 93.8998 55.7072 93.7603 55.7524C93.7443 55.7576 93.7349 55.7606 93.7325 55.7621L93.279 55.9715V53.5898ZM98.1899 61.1154L100.665 46.7446L91.2546 49.9433V64.7774L98.1899 61.1154ZM79.0281 99.5584C78.4606 99.5584 77.3467 99.4908 76.431 99.1566C75.4204 98.7822 73.9141 96.9228 74.2601 94.8752C74.6969 94.6066 75.7095 94.0355 76.6568 94.0355C77.3867 94.0355 77.8846 94.3781 78.2348 95.1164C78.5386 95.7573 79.0872 96.1824 79.4712 96.4257C79.4585 97.0243 79.4016 97.9529 79.2412 98.7758C79.2054 98.9598 79.1589 99.1291 79.1104 99.2961C79.0916 99.3686 79.0698 99.4332 79.0512 99.4884L79.0406 99.5199C79.0361 99.5335 79.0319 99.5463 79.0281 99.5584ZM92.1924 96.4177L92.1923 96.4178L91.9948 96.6113C91.9568 96.6488 91.9317 96.6736 91.9208 96.6847L91.7118 96.892L80.8963 96.7207C80.89 97.7953 80.7148 98.7093 80.5461 99.3778C80.5186 99.4899 80.489 99.6062 80.4595 99.7226L93.326 102.041C94.6637 101.104 98.3477 98.4067 99.7782 97.3489C98.738 95.8278 98.6388 94.0191 98.8751 92.7455C98.1894 92.3098 97.6703 91.8148 97.2568 91.2901C95.7695 92.9146 93.0666 95.5617 92.1941 96.4161L92.193 96.4173L92.1924 96.4177ZM91.7063 81.8567C93.8416 81.6431 96.23 80.725 98.724 78.2476H114.989C114.281 80.1263 113.694 82.1592 113.694 84.1816L113.7 97.2366C110.979 96.7775 110.655 93.8412 110.645 93.7143L110.597 93.1135L110.012 93.0627C108.826 92.9506 108.046 92.4491 107.383 91.804C106.05 90.4648 106.048 88.2985 106.05 88.2815C106.05 88.2835 106.049 88.286 106.048 88.2891C106.046 88.2938 106.043 88.2998 106.039 88.307C106.031 88.3243 106.018 88.3485 106 88.3796C105.758 88.8261 104.76 90.6648 106.265 92.6523C106.97 93.5873 107.997 94.1627 109.324 94.3912C109.636 96.018 110.844 98.3197 113.7 98.6688V105.062H105.672C101.971 102.993 103.541 99.3585 103.611 99.204L103.925 98.5165L103.216 98.2457C99.2071 96.7563 100.311 92.7475 100.363 92.5718L100.526 91.9901L99.9815 91.732C96.671 90.1919 97.1184 86.0497 97.1626 85.8762C96.1457 86.7034 95.7785 88.3916 96.479 90.0459C96.1209 90.4591 95.6452 90.9522 95.1203 91.4964L95.1196 91.497L95.1189 91.4976L95.0337 91.5861C91.605 90.7081 91.4974 87.5496 91.4974 87.4079L91.4889 86.9213L91.0395 86.7457C89.7018 86.2485 88.7819 85.5039 88.3303 84.5032C87.8219 83.3968 88.0012 82.2333 88.1405 81.6748C88.5329 81.7636 88.9212 81.8229 89.2967 81.8567C89.6829 81.897 90.0753 81.9202 90.4762 81.9202H90.4994H90.5289C90.9277 81.9202 91.3159 81.897 91.7063 81.8567ZM77.1157 84.2303L76.8963 92.5413L77.8414 92.6852L80.1453 84.7104L78.9765 82.2567L77.1157 84.2303ZM81.6578 114.499C81.6409 114.77 81.837 114.998 82.1048 115.004C82.3642 115.028 82.5877 114.827 82.613 114.562C82.6236 114.308 82.4317 114.072 82.1618 114.062C81.8982 114.038 81.681 114.243 81.6578 114.499ZM102.75 122.392C102.674 122.372 102.594 122.364 102.524 122.364C102.06 122.364 101.857 122.775 101.857 122.775C102.168 123.611 102.246 124.211 102.316 124.755C102.395 125.361 102.465 125.898 102.838 126.615C103.282 127.471 104.019 128.194 104.471 128.636C104.553 128.718 104.627 128.789 104.687 128.851C104.687 128.851 104.581 129.615 104.472 130.188L103.467 135.42C102.828 135.508 102.157 135.555 101.461 135.587L102.514 130.554C102.667 129.827 101.794 129.343 100.631 128.698C99.4073 128.02 97.8617 127.163 96.8483 125.656C95.8819 126.746 94.0652 127.072 92.238 127.072C90.5712 127.072 88.9065 126.803 87.8916 126.602C87.6363 126.565 87.3915 126.532 87.1489 126.532C86.5644 126.532 86.0305 126.714 85.6613 127.334L85.3722 127.827L79.918 126.537L78.5592 128.794C78.3694 129.157 78.3567 129.464 78.6647 129.805L79.0319 130.209C78.7787 131.004 77.6436 132.21 77.6436 132.21L76.8333 131.195C76.1919 130.475 76.2974 129.157 76.962 127.94L79.1268 124.28L83.7476 124.946L83.0324 123.306C82.3578 121.791 82.8716 119.988 83.2966 118.498L83.2967 118.497C83.4806 117.852 83.6478 117.266 83.6949 116.786C83.6421 117.266 83.2011 117.376 82.6885 117.376C82.4393 117.376 82.1738 117.35 81.9277 117.326C81.7153 117.305 81.5174 117.286 81.357 117.286C81.2199 117.286 81.1038 117.3 81.0427 117.345L79.7894 118.108L78.804 117.235C78.6838 117.068 78.6458 116.67 78.9348 116.375L81.2199 113.805L78.5212 110.642L82.3023 112.546L83.4586 111.144C83.775 111.453 83.6358 112.269 83.6358 112.269C84.8132 112.3 88.1258 114.131 88.3009 118.417C88.3072 118.548 88.3072 118.694 88.3072 118.838C88.3072 118.838 88.3409 118.889 88.398 118.978C88.6321 119.3 89.2778 120.124 90.0943 120.203L95.3228 120.721H95.3418C95.5626 120.721 95.8672 120.621 96.242 120.498C96.841 120.302 97.6194 120.047 98.5214 120.047C99.317 120.047 100.203 120.25 101.151 120.848C101.151 120.848 101.627 120.472 102.397 120.429C102.456 120.425 102.524 120.425 102.577 120.425C104.547 120.425 105.548 121.925 106.566 123.448C106.758 123.738 106.953 124.028 107.153 124.309C108.096 125.656 109.364 127.651 109.364 127.651C108.896 128.204 108.464 128.514 107.736 128.514C107.537 128.514 107.31 128.5 107.061 128.447C105.615 128.181 104.881 126.354 104.245 124.771C103.776 123.603 103.359 122.567 102.75 122.392ZM74.6572 127.124C74.6572 127.124 76.4674 126.377 76.6277 125.848L76.3851 125.24C76.2142 124.847 76.2396 124.42 76.5687 124.187L78.5202 122.835L81.7797 123.464C81.7797 123.464 81.1911 122.723 81.248 121.733L78.1341 121.073L75.2016 122.863C73.942 123.808 73.8513 125.35 74.267 126.266L74.6572 127.124ZM99.6611 135.617C98.9544 135.617 98.3067 135.626 97.7244 135.651L99.256 130.868C99.4169 130.425 98.9189 129.893 98.4243 129.364C98.1858 129.109 97.9483 128.854 97.7856 128.612C98.5409 129.086 100.492 130.126 101.433 130.543C101.338 130.697 99.6611 135.617 99.6611 135.617Z" fill="white"/>
<path fill-rule="evenodd" clip-rule="evenodd" d="M103.617 104.833H67.2977V83.9382C67.2977 81.9144 66.703 79.8799 66 78H82.368C83.9248 79.5412 85.4475 80.5023 86.8981 81.0294C86.7112 81.7725 86.4605 83.3073 87.1593 84.84C87.7306 86.0743 88.7628 87.0248 90.26 87.6598C90.4193 89.1841 91.392 91.4789 94.0658 92.4929C92.8913 93.6721 91.753 94.7836 91.2921 95.2302L80.4269 95.0588C80.1805 94.9359 79.76 94.6586 79.5731 94.2691C79.5617 94.2394 79.5466 94.2172 79.531 94.1944C79.5178 94.1748 79.5042 94.1548 79.4924 94.1293L81.2658 94.4151C81.304 94.4194 81.3422 94.4194 81.3805 94.4194C81.7224 94.4194 82.0219 94.1844 82.0771 93.8351C82.1344 93.4414 81.8732 93.0815 81.4909 93.0243L79.3077 92.6814L81.7287 84.3489L79.4351 79.5412L75.7631 83.4111L75.5401 92.0738L73.0723 91.6843C72.6899 91.6102 72.3268 91.8854 72.2588 92.2706C72.2015 92.6517 72.4605 93.0137 72.8471 93.0815L73.8835 93.2382C73.514 93.4477 73.2698 93.615 73.24 93.6382L73.0298 93.7843L72.9724 94.0426C72.3714 96.4729 73.7285 98.7804 75.1982 99.8114L75.1429 100.118C75.0835 100.491 75.1705 100.855 75.3956 101.162C75.6101 101.474 75.933 101.659 76.3047 101.725C76.379 101.74 76.4597 101.747 76.534 101.747C77.1669 101.747 77.7233 101.308 77.8762 100.664C78.4241 100.733 78.9254 100.743 79.2673 100.743H79.5541L93.8089 103.313L94.0531 103.152C95.1851 102.362 99.5176 99.2186 100.936 98.1728C101.325 98.5095 101.762 98.8101 102.291 99.062C101.828 100.599 101.8 102.964 103.617 104.833ZM67.2976 106.242H113.991L114 123.75C114 129.553 110.583 133.605 105.195 134.926L106.097 130.241L106.109 130.175C106.155 129.913 106.206 129.621 106.243 129.373C106.498 129.479 106.769 129.568 107.057 129.621C107.395 129.684 107.704 129.716 107.989 129.716C109.365 129.716 110.168 128.994 110.702 128.378L111.394 127.573L110.828 126.693C110.778 126.606 109.523 124.633 108.562 123.282C108.374 123.017 108.193 122.751 108.011 122.467C106.915 120.833 105.543 118.788 102.797 118.788L102.548 118.792C102.098 118.822 101.709 118.909 101.393 119.029C100.531 118.63 99.6365 118.418 98.7127 118.418C97.5764 118.418 96.6186 118.729 95.9815 118.947C95.9251 118.963 95.8706 118.98 95.8184 118.996C95.7012 119.032 95.5953 119.065 95.5058 119.08L90.3704 118.577C90.3068 118.566 90.0943 118.443 89.8394 118.141V118.115L90.9502 117.671C90.638 113.98 87.0849 111.711 85.1013 110.943C85.0143 110.572 84.8359 110.204 84.5257 109.903L83.4214 108.86L82.4508 110.017L81.973 110.61L74.7776 107.663L79.4606 113.521L77.615 116.309C76.9375 117.027 77.683 117.742 77.683 117.742L79.5922 119.055L81.5695 118.318C81.6179 118.318 81.6613 118.325 81.7052 118.333C81.7248 118.336 81.7445 118.339 81.7649 118.341C81.7101 118.508 81.6474 118.95 81.5886 119.365C81.5425 119.69 81.4988 119.998 81.4633 120.143L78.0291 119.47L74.4229 121.5C72.5688 122.859 72.3161 125.103 73.0042 126.64L73.4035 127.512L73.9705 128.744L75.2363 128.224C75.2533 128.222 75.2703 128.213 75.2788 128.204C74.8265 129.648 75.0112 131.022 75.8183 131.922L76.587 132.881L77.6065 134.163L78.7258 132.968C79.0528 132.642 80.1231 131.447 80.4523 130.429L80.6924 129.648L80.1486 129.047L80.0552 128.941L80.6732 127.929L85.1544 128.982L86.1611 129.214L86.6963 128.332L86.9894 127.851C87.0446 127.748 87.0573 127.732 87.2654 127.732C87.4226 127.732 87.5819 127.748 87.7539 127.787C89.4465 128.105 91.0054 128.263 92.388 128.263C93.7324 128.263 94.5352 128.213 95.4888 127.897C95.4888 127.897 97.895 130.622 97.9778 130.722L96.5061 135.258L96.4381 135.529C93.6495 135.755 92.2904 136.365 90.6487 138C88.2657 135.643 86.5731 135.394 80.1656 135.394C72.4945 135.394 67.2976 130.91 67.2976 123.75V106.242Z" fill="#FFDD2D"/>
<path fill-rule="evenodd" clip-rule="evenodd" d="M80.51 33.6208L79.288 33.4925L78.1253 33.3538C78.66 34.5475 79.0524 35.6803 79.3347 36.6176C82.4299 34.9175 86.4332 33.9486 90.5023 33.9486C94.5925 33.9486 98.598 34.9175 101.683 36.6176C101.962 35.6803 102.358 34.5475 102.892 33.3538L101.725 33.4925L100.501 33.6208L99.9855 32.5173L98.4262 29.2556L95.5833 30.7204L94.4759 31.2794L93.5912 30.4136L90.5023 27.3872L87.4197 30.4136L86.5393 31.2794L85.4318 30.7204L82.5763 29.2556L81.0361 32.5173L80.51 33.6208ZM102.768 39.3564C100.351 37.4439 95.972 35.647 90.5026 35.647C85.0418 35.647 80.68 37.4439 78.2466 39.3564C78.2466 39.3564 77.5317 35.0732 75.0791 31.2965L79.4835 31.7925L81.7853 26.9419L86.2215 29.2033L90.5026 25L94.7987 29.2033L99.2242 26.9419L101.531 31.7925L105.939 31.2965C103.484 35.0732 102.768 39.3564 102.768 39.3564ZM82.1218 113.877C81.8568 113.852 81.6363 114.058 81.6151 114.313C81.596 114.58 81.7953 114.808 82.0646 114.814C82.3253 114.835 82.5501 114.638 82.5756 114.375C82.5862 114.123 82.3932 113.887 82.1218 113.877ZM103.744 150.321L101.614 144.514C104.146 143.752 108.506 142.108 110.457 141.013L109.157 145.239L113.571 146.691C110.901 148.019 107.663 149.257 103.744 150.321ZM90.5138 155.54C85.3798 155.54 79.5201 154.371 77.7932 153.762L80.4153 146.731C82.5899 147.362 87.1194 148.028 90.4035 148.008H90.412H90.5138H90.6029H90.6135C93.8955 148.028 98.4186 147.362 100.606 146.731L103.224 153.762C101.497 154.371 95.6373 155.54 90.5138 155.54ZM67.4441 146.691L71.8648 145.238L70.556 141.013C72.5055 142.107 76.871 143.751 79.3997 144.514L77.2678 150.32C73.3624 149.256 70.1105 148.019 67.4441 146.691ZM113.77 145.401L111.082 144.382L111.824 141.629L112.641 138.632C112.641 138.632 107.881 141.191 101.17 143.113C99.2673 143.653 97.8268 143.899 97.8268 143.899V145.941C97.8268 145.941 94.2372 146.559 90.6136 146.559H90.5691H90.5139H90.444H90.4036C86.7737 146.559 83.1904 145.941 83.1904 145.941V143.899C83.1904 143.899 81.7478 143.653 79.8469 143.113C73.1366 141.191 68.3822 138.632 68.3822 138.632L69.1863 141.629L69.9416 144.382L67.2472 145.401L64.258 146.509C64.5859 146.666 64.9259 146.83 65.2767 146.999C68.5881 148.594 72.8483 150.646 76.777 151.711L75.7523 154.485C75.7523 154.485 81.2641 156.973 90.444 156.996V157H90.4715H90.5139H90.5479H90.5691V156.996C99.7616 156.973 105.267 154.485 105.267 154.485L104.238 151.711C108.2 150.637 112.503 148.56 115.819 146.959C116.139 146.804 116.452 146.654 116.753 146.509L113.77 145.401ZM159.826 107.691C159.826 107.691 157.923 110.973 153.553 110.973H153.5C148.253 110.942 146.14 107.773 146.14 107.773C146.14 107.773 146.442 111.896 144.554 117.459C142.28 124.17 144.574 128.96 144.574 128.96C144.574 128.96 143.347 129.288 141.938 129.288C141.399 129.288 140.837 129.235 140.304 129.1C135.923 128.067 134.832 124.116 134.832 124.116C134.832 124.116 135.234 137.461 119.528 137.461H119.405C119.405 137.461 120.79 135.595 121.198 130.231C121.944 120.33 128.712 118.968 128.712 118.968C128.712 118.968 125.099 118.518 123.536 117.129C121.085 114.933 121.259 112.392 121.259 112.392C126.786 112.317 130.408 110.452 133.165 107.293C136.154 103.87 136.643 100.182 136.643 100.182C136.643 100.182 133.672 102.849 127.927 102.849C127.422 102.849 126.883 102.826 126.327 102.771C123.609 102.554 121.73 100.842 121.73 100.842C127.71 97.0439 131.907 90.4131 128.186 80.4302C125.205 72.4313 118.043 66.4543 110.83 61.9525C108.43 60.4688 107.094 58.8168 107.094 57.3982C107.094 55.3491 108.896 54.5155 110.744 53.6606C111.911 53.1204 113.097 52.5718 113.859 51.7028C116.131 49.0904 114.706 44.8597 112.739 42.3104C112.739 42.3104 113.401 42.1759 114.447 42.1759C116.523 42.1759 120.116 42.6908 123.067 45.7256C126.987 49.7419 125.362 54.1196 125.362 54.1196L126.412 54.3214C127.011 54.4476 127.608 54.4764 128.223 54.5061L128.313 54.5106C128.383 54.5106 128.454 54.5126 128.525 54.5147C128.596 54.5169 128.668 54.5189 128.737 54.5189C134.432 54.5189 136.977 48.6195 136.977 48.6195C136.977 48.6195 143.032 55.9964 134.117 61.7801C132.583 62.77 131.907 63.6885 132.085 64.6615L132.223 65.3046L132.858 65.4161C139.038 67.0763 142.299 71.1893 146.063 75.9353L146.065 75.9378L146.085 75.9634L146.098 75.9785L146.102 75.9838L146.113 75.9982L146.125 76.0133L146.133 76.023C146.281 76.2106 146.431 76.399 146.581 76.5884C152.647 84.2237 161.222 84.4696 162.281 84.4696H162.398C162.398 84.4696 160.44 90.5918 154.671 90.5918C154.573 90.5918 154.49 90.5917 154.397 90.5855C151.747 90.4909 150.387 89.4884 150.387 89.4884C150.387 89.4884 149.354 103.382 159.826 107.691ZM154.672 92.4666C161.746 92.4666 164.113 85.3378 164.208 85.0331L165 82.5195L162.348 82.6015H162.339C161.404 82.6015 153.597 82.3976 148.066 75.4306L147.544 74.7854L147.517 74.7511C143.912 70.2093 140.485 65.8926 134.369 63.922C134.548 63.7643 134.8 63.5689 135.148 63.344C138.402 61.2277 140.294 58.6511 140.769 55.6624C141.466 51.167 138.568 47.5795 138.441 47.4345L136.472 45.0239L135.241 47.8842L135.239 47.8877C135.135 48.1174 133.065 52.6466 128.739 52.6466H128.412C128.335 52.6423 128.26 52.6381 128.184 52.6341C127.969 52.6226 127.757 52.6112 127.551 52.594C127.703 50.5534 127.328 47.3903 124.43 44.4207C120.948 40.85 116.68 40.312 114.448 40.312C113.397 40.312 112.656 40.4265 112.436 40.4607C112.406 40.4652 112.386 40.4684 112.375 40.4696L109.401 41.0539L111.238 43.4497C112.674 45.2971 113.981 48.706 112.433 50.4839C111.966 51.0197 111.032 51.4598 110.11 51.8946L109.947 51.972C107.946 52.8841 105.207 54.1598 105.207 57.3984C105.207 59.4917 106.849 61.6858 109.826 63.5499C118.632 69.0353 124.067 74.7623 126.413 81.082C130.045 90.8043 125.306 96.3505 120.709 99.2718L118.642 100.585L120.447 102.229L120.449 102.23C120.703 102.451 122.907 104.371 126.165 104.647C126.785 104.686 127.375 104.722 127.929 104.722C130.018 104.722 131.802 104.396 133.251 103.956C132.852 104.647 132.36 105.356 131.747 106.064C129.116 109.081 125.881 110.453 121.231 110.528L119.501 110.556L119.37 112.273C119.353 112.62 119.222 115.803 122.266 118.513C122.731 118.933 123.293 119.277 123.885 119.557C121.819 121.398 119.722 124.605 119.317 130.094C118.973 134.68 117.872 136.375 117.858 136.393L115.946 139.283L119.4 139.33C125.105 139.33 129.471 137.772 132.498 134.68C134.289 132.852 135.312 130.787 135.916 128.96C136.907 129.799 138.188 130.534 139.862 130.925C140.496 131.072 141.188 131.149 141.939 131.149C143.506 131.149 144.829 130.829 145.035 130.779L145.049 130.775L147.253 130.195L146.279 128.159L146.275 128.149C146.157 127.875 144.399 123.818 146.347 118.069C147.2 115.545 147.635 113.285 147.847 111.527C149.237 112.242 151.095 112.834 153.499 112.842C158.875 112.842 161.289 108.921 161.461 108.643L161.467 108.633L162.543 106.779L160.551 105.965C154.046 103.291 152.608 96.1067 152.32 92.2207C152.908 92.3322 153.579 92.4351 154.337 92.4561L154.672 92.4666ZM151.03 63.901C149.577 62.413 148.041 61.9696 146.723 61.9696C144.676 61.9696 143.142 63.0415 143.142 63.0415C146.114 64.6086 147.81 66.6873 149.234 68.4334C150.447 69.9212 151.464 71.1674 152.905 71.6499C153.437 71.8326 153.975 71.9126 154.511 71.9126C156.823 71.9126 159.056 70.4308 159.828 68.7412C159.828 68.7412 155.589 68.4848 151.03 63.901ZM147.765 69.6093C146.418 67.9553 144.88 66.089 142.242 64.6978L139.534 63.2539L142.05 61.4991L142.082 61.4785C142.41 61.2706 144.26 60.0993 146.723 60.0993C148.821 60.0993 150.771 60.9547 152.382 62.5793C156.297 66.5409 159.818 66.8603 159.945 66.8645L162.679 67.0243L161.548 69.5084C160.426 71.9863 157.463 73.7748 154.512 73.7748C153.752 73.7748 153.011 73.6613 152.315 73.4238C150.372 72.7866 149.122 71.2638 147.814 69.6694L147.765 69.6093ZM143.481 89.4472V89.5418C141.894 76.852 132.594 67.6867 122.24 62.1173C121.286 61.6087 120.399 61.18 119.544 60.768C122.692 61.2514 127.769 61.3081 131.685 57.9434C131.685 57.9434 125.692 62.3106 113.415 58.3427C114.399 58.9761 115.655 59.6851 117.088 60.4945C120.594 62.4756 125.165 65.0578 129.447 68.603C144.518 81.7236 133.736 94.5206 133.736 94.5206C139.151 88.9197 139.375 82.9237 137.782 78.0227C140.636 82.7283 142.461 88.4342 142.174 95.4727C141.758 105.558 136.166 114.278 130.276 121.285C127.446 124.687 126.816 128.866 126.816 128.866C126.816 128.866 127.96 125.178 131.234 121.384C137.54 114.066 142.938 106.469 143.642 95.5147C144.296 97.5029 146.984 103.026 151.245 105.107C151.245 105.107 145.889 101.91 143.481 89.4472ZM46.1791 124.116C46.1791 124.116 45.7781 137.461 61.4858 137.461H61.5983C61.5983 137.461 60.2236 135.595 59.8204 130.231C59.0737 120.328 52.3018 118.968 52.3018 118.968C52.3018 118.968 55.9168 118.519 57.4846 117.129C59.9287 114.933 59.7547 112.392 59.7547 112.392C54.2282 112.317 50.611 110.452 47.8339 107.293C44.8637 103.871 44.3716 100.182 44.3716 100.182C44.3716 100.182 47.3416 102.849 53.0804 102.849C53.5959 102.849 54.1305 102.826 54.6864 102.771C57.4104 102.555 59.2922 100.842 59.2922 100.842C53.3031 97.0439 49.1089 90.4153 52.8258 80.4303C55.8044 72.4314 62.9646 66.4543 70.182 61.9526C72.5793 60.4688 73.9138 58.8169 73.9138 57.3982C73.9138 55.3494 72.1143 54.5157 70.2682 53.6604C69.1015 53.1199 67.9162 52.5707 67.1546 51.7007C64.8845 49.0904 66.3059 44.8577 68.2684 42.3105C68.2684 42.3105 67.617 42.176 66.5669 42.176C64.492 42.176 60.9025 42.6909 57.9493 45.7257C54.0181 49.7419 55.6517 54.1197 55.6517 54.1197L54.6015 54.3214C54.0174 54.4446 53.4278 54.475 52.8327 54.5057L52.6985 54.5127C52.6245 54.5127 52.5549 54.5143 52.4859 54.5159H52.4857C52.4185 54.5175 52.3519 54.519 52.2827 54.519C46.5716 54.519 44.0385 48.6218 44.0385 48.6218C44.0385 48.6218 37.9857 55.9964 46.9004 61.7802C48.4342 62.7681 49.1089 63.6864 48.9286 64.6616L48.7928 65.3047L48.1436 65.4161C41.9664 67.0803 38.7007 71.1972 34.9294 75.9515C34.762 76.1626 34.5935 76.375 34.4237 76.5885C28.3647 84.2238 19.7938 84.4697 18.7287 84.4697H18.6099C18.6099 84.4697 20.5681 90.5919 26.3408 90.5919C26.432 90.5919 26.5189 90.5918 26.6144 90.5856C29.2684 90.491 30.6284 89.4884 30.6284 89.4884C30.6284 89.4884 31.6531 103.382 21.1896 107.691C21.1896 107.691 23.0949 110.971 27.463 110.971H27.5139C32.7647 110.942 34.8756 107.773 34.8756 107.773C34.8756 107.773 34.5702 111.896 36.4519 117.459C38.7283 124.17 36.4456 128.96 36.4456 128.96C36.4456 128.96 37.6633 129.288 39.0762 129.288C39.6215 129.288 40.1816 129.235 40.7055 129.098C45.0844 128.067 46.1791 124.116 46.1791 124.116ZM63.1519 136.382C63.1552 136.387 63.1569 136.39 63.1571 136.391L65.0686 139.283L61.6148 139.33C55.91 139.33 51.5482 137.77 48.5123 134.681C46.7281 132.852 45.7013 130.787 45.1009 128.96C44.1165 129.799 42.8224 130.534 41.1485 130.925C40.5206 131.072 39.8268 131.149 39.0779 131.149C37.4781 131.149 36.1225 130.814 35.9694 130.776L35.9678 130.775L33.7592 130.195L34.7372 128.159L34.7439 128.144C34.8815 127.821 36.6068 123.78 34.6672 118.069C33.8144 115.543 33.3795 113.285 33.1674 111.527C31.7777 112.242 29.9214 112.834 27.5325 112.84C22.1081 112.84 19.689 108.865 19.55 108.638L19.5472 108.633L18.4737 106.777L20.4594 105.965C26.964 103.291 28.4066 96.1067 28.7015 92.2208C28.1033 92.3322 27.4308 92.4352 26.684 92.4562L26.3424 92.4668C19.265 92.4668 16.9038 85.3378 16.8104 85.0332L16 82.5195L18.6646 82.6015C19.6002 82.6015 27.4201 82.3976 32.9467 75.4307L33.4686 74.7854L33.5057 74.7387C37.1072 70.2015 40.5288 65.8908 46.6474 63.9221C46.4693 63.7644 46.2253 63.569 45.871 63.3441C42.6165 61.2277 40.7221 58.6511 40.2511 55.6625C39.56 51.252 42.3406 47.7155 42.5522 47.4465L42.5615 47.4345L44.5515 45.024L45.7777 47.8842C45.8561 48.065 47.9183 52.6466 52.2843 52.6466H52.6047C52.6781 52.6425 52.7506 52.6386 52.8224 52.6346H52.8226H52.8227H52.8229C53.04 52.6229 53.2515 52.6115 53.4618 52.594C53.3133 50.5513 53.693 47.3925 56.5931 44.4187C60.0745 40.85 64.3346 40.312 66.5685 40.312C67.6281 40.312 68.3632 40.4274 68.5781 40.4611C68.6058 40.4654 68.625 40.4684 68.6349 40.4696L71.6241 41.0539L69.7784 43.4498C68.3379 45.295 67.031 48.706 68.5819 50.484C69.0436 51.014 69.9622 51.4486 70.8748 51.8804L71.0683 51.972C73.071 52.8841 75.8014 54.1599 75.8014 57.3984C75.8014 59.4918 74.1721 61.6858 71.1956 63.55C62.3764 69.0353 56.9496 74.7623 54.6031 81.0821C50.9775 90.8043 55.6979 96.3484 60.3122 99.2718L62.3764 100.585L60.5668 102.229C60.3228 102.444 58.1122 104.37 54.845 104.647C54.2298 104.686 53.6443 104.722 53.082 104.722C50.986 104.722 49.2124 104.396 47.7655 103.956C48.1687 104.647 48.6608 105.354 49.2696 106.064C51.8982 109.079 55.142 110.453 59.7776 110.528L61.5194 110.556L61.636 112.273C61.6572 112.62 61.7888 115.803 58.7465 118.513C58.2797 118.933 57.7261 119.277 57.1257 119.557C59.1963 121.398 61.2924 124.605 61.7039 130.094C62.0429 134.509 63.0698 136.243 63.1519 136.382ZM29.9815 63.8987C31.4389 62.4128 32.9729 61.9672 34.2967 61.9672C36.3334 61.9672 37.8757 63.0391 37.8757 63.0391C34.9114 64.6053 33.2149 66.6798 31.7887 68.4239C30.568 69.9164 29.5454 71.167 28.0955 71.6496C27.5778 71.8324 27.0389 71.9123 26.5021 71.9123C24.1918 71.9123 21.9536 70.4306 21.1899 68.7409C21.1899 68.7409 25.4287 68.4846 29.9815 63.8987ZM26.5013 73.7746C27.2607 73.7746 27.999 73.6631 28.6991 73.4257C30.6504 72.7855 31.9003 71.2594 33.2082 69.6625L33.2519 69.6091L33.29 69.5627C34.6361 67.9223 36.1513 66.0759 38.7679 64.6976L41.4835 63.2537L38.9609 61.4987L38.927 61.4774C38.5958 61.2672 36.7542 60.0991 34.2958 60.0991C32.1933 60.0991 30.2415 60.9524 28.6312 62.5791C24.7149 66.5428 21.2038 66.8623 21.0765 66.8643L18.344 67.024L19.4663 69.5082C20.5928 71.986 23.5566 73.7746 26.5013 73.7746ZM43.2322 78.0231C40.3766 82.7287 38.5521 88.4326 38.847 95.4731C39.2564 105.559 44.8487 114.281 50.7253 121.285C53.5682 124.684 54.2068 128.866 54.2068 128.866C54.2068 128.866 53.0526 125.178 49.7813 121.382C43.474 114.066 38.079 106.465 37.3661 95.5151C36.7127 97.5034 34.029 103.027 29.7732 105.107C29.7732 105.107 35.1259 101.911 37.5295 89.4456V89.5444C39.1227 76.8525 48.4214 67.6871 58.7766 62.1177C59.6279 61.6622 60.4349 61.269 61.2038 60.8945L61.4709 60.7643C58.3247 61.2519 53.2479 61.3087 49.3295 57.9439C49.3295 57.9439 55.3248 62.3111 67.5978 58.3432C66.614 58.9757 65.3615 59.6837 63.932 60.4918L63.9319 60.4919C60.4264 62.4733 55.8568 65.0564 51.574 68.6034C36.4963 81.7241 47.2821 94.5232 47.2821 94.5232C41.8553 88.9201 41.6389 82.922 43.2322 78.0231ZM86.9602 69.7976V72.3131C87.8363 71.2582 89.527 71.4745 89.527 71.4745V75.0996C89.527 75.0996 89.4697 76.8857 88.8291 77.657H90.6661H92.4925C91.8625 76.8857 91.7968 75.0996 91.7968 75.0996V71.4745C91.7968 71.4745 93.4938 71.2582 94.3614 72.3131V69.7976H90.6661H86.9602ZM87.2285 55.9531C87.0885 55.9078 86.4374 55.6976 85.3855 54.8722C83.4466 53.3823 83.4084 52.01 83.4084 52.01L87.7146 53.8026V56.1709L87.2564 55.9629C87.254 55.9613 87.2446 55.9583 87.2286 55.9531H87.2285ZM95.6242 54.8722C97.5694 53.3823 97.6075 52.01 97.6075 52.01L93.2992 53.8026V56.1709L93.7553 55.9629C93.7577 55.9613 93.7671 55.9583 93.7831 55.9531C93.9231 55.9078 94.574 55.6977 95.6242 54.8722ZM80.1307 44.5032L90.5029 48.5614L100.878 44.5032C100.001 42.433 95.934 40.6761 90.5029 40.6697C85.0802 40.6761 81.0155 42.433 80.1307 44.5032ZM91.2645 64.9165L98.2379 61.2806L100.724 46.9998L91.2645 50.1818V64.9165ZM105.744 67.0224L102.555 65.1897L99.2796 63.3298L90.5283 68.0501L90.5029 68.0311L90.4859 68.0501L81.7346 63.3298L78.459 65.1897L75.264 67.0224H75.2301L74.4218 67.4868C76.2229 67.9786 77.5913 68.8613 78.7539 70.034C78.7724 70.0515 78.7893 70.0707 78.8063 70.09C78.8321 70.1195 78.8585 70.1495 78.8918 70.1748C79.1484 70.4481 79.4031 70.7464 79.647 71.0449C79.6577 71.0579 79.6684 71.0705 79.6789 71.0832C79.725 71.1384 79.7702 71.1926 79.8168 71.2593C80.0416 71.5535 80.2687 71.8709 80.4893 72.1924C80.5169 72.2281 80.5438 72.2685 80.5715 72.3101C80.5929 72.342 80.6147 72.3748 80.6378 72.4068C80.9009 72.7977 81.1491 73.2076 81.3951 73.6278C83.661 77.5012 87.2846 79.8172 90.5029 79.8214C93.7255 79.8172 97.3469 77.5012 99.6169 73.6278C99.8673 73.197 100.122 72.7767 100.385 72.3879C100.423 72.3333 100.466 72.2743 100.502 72.2177C100.724 71.8834 100.959 71.5577 101.204 71.2446C101.231 71.2098 101.257 71.1762 101.283 71.1437C101.307 71.1133 101.331 71.0838 101.353 71.0554C101.605 70.7464 101.866 70.4459 102.131 70.1643C102.152 70.1452 102.171 70.1256 102.191 70.1065C102.213 70.0837 102.236 70.0618 102.258 70.0424C103.414 68.8718 104.787 67.9786 106.588 67.4868L105.786 67.0224H105.744ZM113.825 84.1929C113.825 82.1838 114.414 80.164 115.127 78.2977H98.7725C96.2691 80.7588 93.8654 81.673 91.7163 81.8832C91.3281 81.9231 90.9334 81.9483 90.5346 81.9483H90.5027H90.4795C90.0807 81.9483 89.6817 81.9231 89.2957 81.8832C88.9202 81.8517 88.5255 81.7928 88.1309 81.7024C87.9909 82.2573 87.8106 83.4111 88.3219 84.5124C88.7801 85.5064 89.7009 86.2483 91.048 86.7401L91.502 86.9146L91.5084 87.3979C91.5084 87.5429 91.6145 90.6786 95.0619 91.5487L95.0829 91.5273C95.6368 90.962 96.1402 90.4483 96.5152 90.0208C95.8108 88.3752 96.18 86.698 97.2047 85.8763C97.1601 86.0508 96.7104 90.1637 100.037 91.6916L100.586 91.9522L100.423 92.5323C100.37 92.7046 99.2604 96.6851 103.289 98.1668L104.002 98.4317L103.688 99.1188C103.616 99.2744 102.038 102.885 105.759 104.934H113.831V98.5893C110.963 98.2403 109.745 95.9559 109.431 94.3355C108.099 94.1106 107.065 93.5369 106.355 92.6079C104.843 90.6315 105.846 88.8064 106.089 88.3633C106.118 88.3106 106.137 88.2775 106.139 88.2659C106.137 88.2849 106.139 90.4391 107.481 91.7673C108.144 92.4062 108.934 92.9042 110.123 93.0157L110.711 93.0703L110.763 93.6629C110.774 93.7912 111.095 96.7061 113.831 97.1622L113.825 84.1929ZM105.945 130.16L105.044 134.811C110.426 133.499 113.84 129.477 113.84 123.717L113.831 106.336H67.1851V123.717C67.1851 130.827 72.3786 135.276 80.0416 135.276C86.4443 135.276 88.1309 135.524 90.5134 137.863C92.1533 136.241 93.5089 135.635 96.2966 135.411L96.3625 135.14L97.8347 130.641C97.752 130.536 95.3483 127.834 95.3483 127.834C94.3937 128.147 93.5918 128.2 92.2509 128.2C90.8698 128.2 89.3105 128.04 87.6218 127.725C87.452 127.687 87.2929 127.672 87.1339 127.672C86.9259 127.672 86.9153 127.687 86.858 127.787L86.5674 128.264L86.0328 129.141L85.0229 128.909L80.5487 127.866L79.9355 128.87L80.0267 128.977L80.5677 129.572L80.3258 130.346C79.9992 131.358 78.9299 132.543 78.6032 132.867L77.4851 134.059L76.4668 132.781L75.7009 131.829C74.8969 130.936 74.7101 129.572 75.1642 128.137C75.1536 128.147 75.1345 128.153 75.1175 128.157L73.8552 128.675L73.2888 127.454L72.8878 126.587C72.2005 125.059 72.4529 122.832 74.305 121.482L77.9073 119.469L81.3378 120.138C81.3748 119.991 81.4194 119.677 81.4662 119.347C81.5241 118.942 81.5852 118.512 81.6391 118.347C81.6171 118.344 81.5957 118.341 81.5743 118.337C81.5313 118.33 81.4885 118.321 81.4418 118.321L79.4688 119.053L77.5615 117.755C77.5615 117.755 76.819 117.04 77.4915 116.33L79.3351 113.561L74.6614 107.747L81.847 110.671L82.3265 110.083L83.296 108.933L84.3971 109.97C84.7089 110.269 84.8872 110.633 84.9741 111.001C86.9514 111.763 90.5027 114.018 90.8168 117.683L89.7051 118.124V118.147C89.9618 118.448 90.1697 118.57 90.2355 118.582L95.3675 119.083C95.4526 119.066 95.5514 119.035 95.6617 119.002C95.7191 118.985 95.7795 118.966 95.8427 118.948C96.477 118.735 97.4338 118.422 98.571 118.422C99.4938 118.422 100.385 118.63 101.246 119.03C101.563 118.913 101.951 118.824 102.402 118.796L102.649 118.79C105.392 118.79 106.759 120.816 107.853 122.437L107.857 122.443C108.039 122.727 108.219 122.987 108.409 123.252C109.369 124.593 110.619 126.55 110.672 126.638L111.236 127.512L110.545 128.311C110.012 128.923 109.209 129.639 107.833 129.639C107.552 129.639 107.244 129.608 106.905 129.544C106.614 129.489 106.347 129.404 106.092 129.299C106.052 129.566 105.994 129.885 105.945 130.16ZM76.5558 125.585L76.314 124.983C76.14 124.593 76.1634 124.168 76.4963 123.937L78.4586 122.596L81.736 123.218C81.736 123.218 81.1441 122.483 81.2014 121.5L78.0725 120.843L75.1218 122.622C73.8553 123.561 73.7641 125.092 74.1841 126.003L74.5745 126.854C74.5745 126.854 76.3967 126.112 76.5558 125.585ZM103.544 135.097L104.552 129.897C104.664 129.33 104.77 128.569 104.77 128.569C104.713 128.513 104.646 128.448 104.571 128.375C104.118 127.937 103.364 127.208 102.909 126.352C102.535 125.638 102.464 125.104 102.385 124.5C102.314 123.959 102.236 123.363 101.925 122.533C101.925 122.533 102.127 122.126 102.594 122.126C102.665 122.126 102.746 122.134 102.822 122.155C103.434 122.327 103.852 123.355 104.324 124.515C104.963 126.088 105.702 127.904 107.157 128.17C107.407 128.218 107.634 128.236 107.833 128.236C108.568 128.236 109.003 127.929 109.472 127.377C109.472 127.377 108.198 125.398 107.25 124.061C107.05 123.783 106.856 123.496 106.662 123.21C105.638 121.692 104.63 120.198 102.649 120.198C102.594 120.198 102.525 120.198 102.468 120.207C101.692 120.243 101.214 120.619 101.214 120.619C100.262 120.026 99.3709 119.824 98.5711 119.824C97.6633 119.824 96.8795 120.078 96.2769 120.274C95.9005 120.395 95.5949 120.495 95.3739 120.495H95.3527L90.0998 119.978C89.2766 119.902 88.6254 119.083 88.392 118.759C88.3347 118.673 88.3028 118.62 88.3028 118.62C88.3028 118.481 88.3028 118.335 88.2944 118.206C88.1162 113.948 84.7875 112.126 83.6015 112.096C83.6015 112.096 83.7416 111.29 83.4212 110.978L82.2607 112.371L78.459 110.481L81.1746 113.622L78.877 116.178C78.5863 116.47 78.6223 116.861 78.7433 117.027L79.7362 117.897L80.9963 117.143C81.0579 117.094 81.1746 117.082 81.3104 117.082C81.4714 117.082 81.67 117.1 81.8836 117.121C82.1315 117.145 82.3992 117.17 82.6512 117.17C83.1646 117.17 83.608 117.062 83.661 116.585C83.6135 117.062 83.4458 117.644 83.2612 118.285C82.8346 119.766 82.3186 121.555 82.997 123.061L83.7183 124.691L79.07 124.026L76.8954 127.666C76.223 128.876 76.119 130.186 76.7618 130.9L77.5765 131.909C77.5765 131.909 78.7179 130.711 78.9724 129.921L78.6033 129.519C78.2914 129.178 78.3084 128.876 78.4994 128.513L79.8614 126.274L85.3476 127.553L85.6404 127.064C86.0117 126.451 86.5463 126.268 87.134 126.268C87.3779 126.268 87.6261 126.296 87.8828 126.338C88.9011 126.537 90.575 126.802 92.251 126.802C94.0883 126.802 95.917 126.476 96.8887 125.398C97.9059 126.892 99.4587 127.743 100.689 128.417C101.86 129.059 102.738 129.54 102.583 130.263L101.524 135.259C102.224 135.231 102.901 135.185 103.544 135.097ZM97.7691 135.325C98.3525 135.302 99.008 135.294 99.7144 135.294C99.7144 135.294 101.403 130.404 101.499 130.249C100.552 129.837 98.5901 128.804 97.8306 128.331C97.9942 128.575 98.2347 128.829 98.4756 129.084C98.9722 129.608 99.4713 130.134 99.3071 130.576L97.7691 135.325ZM77.046 84.2432L76.8276 92.4976L77.7758 92.6425L80.0922 84.718L78.917 82.2825L77.046 84.2432ZM79.4131 96.357C79.0291 96.1154 78.4776 95.693 78.17 95.0563C77.8221 94.3228 77.3194 93.9824 76.5875 93.9824C75.6329 93.9824 74.6147 94.5498 74.1757 94.8167C73.8277 96.853 75.3424 98.698 76.3584 99.07C77.279 99.402 78.397 99.4713 78.9697 99.4713C78.9774 99.4465 78.9866 99.4193 78.9965 99.3898C79.0144 99.337 79.0347 99.2769 79.0525 99.2108C79.1012 99.0448 79.1479 98.8746 79.1861 98.6938C79.3452 97.8743 79.4024 96.9518 79.4131 96.357ZM93.3456 101.935C94.6907 101.004 98.397 98.3244 99.8332 97.2757C98.7873 95.7625 98.6876 93.9656 98.9231 92.7045C98.2379 92.2696 97.7159 91.7756 97.2981 91.2544C95.71 92.97 92.7436 95.8296 92.0665 96.4823C91.9947 96.5516 91.9486 96.596 91.9327 96.6116L91.7227 96.8217L80.8499 96.6494C80.8414 97.7191 80.6674 98.6249 80.4977 99.2912C80.4813 99.3576 80.4633 99.4254 80.4453 99.4939C80.4329 99.5403 80.4206 99.587 80.4086 99.6338L93.3456 101.935ZM86.7648 81.3031C85.32 80.782 83.7968 79.8277 82.2395 78.2977H65.889C66.5912 80.164 67.1852 82.1838 67.1852 84.1929V104.934H103.467C101.654 103.08 101.683 100.733 102.139 99.2114C101.613 98.9592 101.179 98.6586 100.79 98.3266C99.3709 99.3626 95.0472 102.482 93.9122 103.268L93.6703 103.426L79.4328 100.88H79.1421C78.8006 100.88 78.302 100.865 77.7546 100.8C77.602 101.437 77.046 101.87 76.4118 101.87C76.3396 101.87 76.259 101.866 76.1848 101.851C75.8135 101.788 75.491 101.601 75.2747 101.292C75.0518 100.989 74.9649 100.628 75.0264 100.258L75.0773 99.9511C73.6113 98.9276 72.2557 96.6389 72.8561 94.2241L72.9134 93.9677L73.1234 93.8227C73.151 93.7995 73.3971 93.6335 73.7641 93.4276L72.7309 93.27C72.3427 93.2027 72.0817 92.8433 72.1432 92.4671C72.2091 92.0846 72.5739 91.8072 72.9558 91.8807L75.421 92.2696L75.6458 83.6717L79.3139 79.8277L81.6031 84.6006L79.1867 92.8706L81.3634 93.2111C81.7474 93.272 82.0083 93.6273 81.9511 94.0181C81.8938 94.3649 81.5968 94.5982 81.253 94.5982C81.2149 94.5982 81.1788 94.5982 81.1406 94.594L79.3713 94.3124C79.3822 94.337 79.3955 94.3565 79.4087 94.376C79.4237 94.398 79.4385 94.42 79.4498 94.449C79.6365 94.8377 80.0565 95.111 80.3026 95.2328L91.1542 95.4031L91.1984 95.3603C91.6846 94.8899 92.7919 93.8183 93.927 92.6836C91.2539 91.6811 90.2844 89.4029 90.121 87.8876C88.6296 87.2571 87.5985 86.3134 87.0257 85.0882C86.3298 83.5686 86.576 82.045 86.7648 81.3031ZM89.7475 50.1818L80.2791 46.9998L82.774 61.2806L89.7475 64.9165V50.1818ZM90.5261 38.3916C97.2684 38.3916 103.378 41.626 103.378 45.2219L103.247 46.1067L100.552 61.4193L103.247 62.9746L110.256 67.0224H110.231C110.231 67.0224 111.807 67.8231 112.526 68.317C115.206 70.1475 115.766 72.825 114.217 73.9305C113.831 71.749 112.093 69.4708 108.837 69.4708C106.489 69.4708 104.702 70.6645 103.247 72.4699C102.885 72.9238 102.532 73.4093 102.198 73.9305C101.792 74.5904 101.388 75.1684 100.985 75.7232H119.016C117.686 78.3629 116.43 81.156 116.43 84.1929V123.717C116.43 133.285 109.013 137.848 100.975 137.848C100.507 137.848 100.069 137.846 99.6585 137.845C94.6199 137.827 93.666 137.823 90.5134 140.95C87.3473 137.823 86.3922 137.827 81.3568 137.845C80.9466 137.846 80.5093 137.848 80.0416 137.848C72.0095 137.848 64.5821 133.285 64.5821 123.717V84.1929C64.5821 81.156 63.3241 78.3629 61.9981 75.7232H80.0268C79.6216 75.1684 79.2143 74.5904 78.8091 73.9305C78.4823 73.4093 78.128 72.9238 77.7546 72.4699C76.3141 70.6708 74.5235 69.4708 72.1772 69.4708C68.9164 69.4708 67.1767 71.749 66.7948 73.9305C65.2482 72.825 65.8147 70.1475 68.4794 68.317C69.2092 67.8231 70.7833 67.0224 70.7833 67.0224H70.7578L77.7546 62.9746L80.4617 61.4193L77.7674 46.1067L77.6337 45.2219C77.6337 41.626 83.7437 38.3916 90.4859 38.3916H90.5029H90.5198H90.5261Z" fill="#231F20"/>
</g>
<defs>
<clipPath id="clip0_317_50">
<rect width="180" height="180" fill="white"/>
</clipPath>
</defs>
</svg>
