<svg width="48" height="32" viewBox="0 0 48 32" fill="none" xmlns="http://www.w3.org/2000/svg"><path d="M19.17 15.5a9.46 9.46 0 0 1-2.81 6.72 9.63 9.63 0 0 1-13.55 0 9.46 9.46 0 0 1 0-13.44 9.63 9.63 0 0 1 13.55 0 9.46 9.46 0 0 1 2.8 6.72Z" fill="#FB3F1D"/><path d="M24.26 9.79v11.36h1.96v-4h.89c2.51 0 4.38-1.18 4.38-3.68s-1.75-3.68-4.06-3.68h-3.17Zm1.96 1.57h1.2c1.6 0 2.04 1.06 2.04 2.1 0 1.06-.45 2.12-2.03 2.12h-1.2v-4.22Z" fill="#231F20"/><path d="M19.08 15.47c0 2.5-1 4.89-2.78 6.65a9.54 9.54 0 0 1-13.43 0 9.37 9.37 0 0 1 0-13.3 9.54 9.54 0 0 1 13.43 0 9.37 9.37 0 0 1 2.78 6.65Z" fill="#FB3F1D"/><path d="M12.88 21.1H10.9v-9.75h-.88c-1.62 0-2.48.81-2.48 2.02 0 1.36.6 2 1.8 2.8l1 .67-2.88 4.27H5.32l2.58-3.82c-1.49-1.05-2.32-2.07-2.32-3.81 0-2.18 1.52-3.65 4.42-3.65h2.88V21.1Z" fill="#fff"/><path d="m34.42 9.79-3 11.36h1.64l.64-2.45h3.55l.63 2.45h2.02l-3-11.36h-2.48Zm1.07 2.02 1.36 5.32H34.1l1.39-5.32ZM39.26 9.79l3.39 6.5v4.86h1.96V16.3L48 9.79h-1.88l-2.37 4.79-2.37-4.8h-2.12Z" fill="#231F20"/></svg>
